<?xml version="1.0" encoding="iso-8859-1"?>
<!-- Generator: Adobe Illustrator 19.0.0, SVG Export Plug-In . SVG Version: 6.00 Build 0)  -->
<svg version="1.1" id="Capa_1" xmlns="http://www.w3.org/2000/svg" xmlns:xlink="http://www.w3.org/1999/xlink" x="0px" y="0px"
	 viewBox="0 0 512 512" fill="#FFFBE3" style="enable-background:new 0 0 512 512;" xml:space="preserve">
<g>
	<g>
		<path d="M241.776,19.75l-6.583-19.746H15.003c-6.064,0-11.543,3.647-13.857,9.258c-2.329,5.61-1.04,12.055,3.252,16.347
			l189.097,189.098c11.358-17.135,29.702-28.828,50.803-32.21C259.825,129.883,259.124,71.839,241.776,19.75z"/>
	</g>
</g>
<g>
	<g>
		<path d="M354.784,93.577L269.102,6.896l1.121,3.362c16.99,50.981,19.594,107.233,8.231,159.644L354.784,93.577z"/>
	</g>
</g>
<g>
	<g>
		<path d="M182.496,267.7c-52.602-15.527-110.646-14.826-162.748,2.523l-19.746,6.583v220.191c0,6.064,3.647,11.543,9.258,13.857
			c5.528,2.307,12.017,1.078,16.348-3.252l189.098-189.098C197.571,307.147,185.878,288.805,182.496,267.7z"/>
	</g>
</g>
<g>
	<g>
		<path d="M93.576,157.216L6.895,242.898l3.362-1.121c50.994-16.99,107.235-19.596,159.646-8.231L93.576,157.216z"/>
	</g>
</g>
<g>
	<g>
		<path d="M502.738,1.147c-5.581-2.329-12.041-1.04-16.348,3.252L297.293,193.496c17.135,11.358,28.828,29.7,32.21,50.803
			c52.602,15.527,110.646,14.826,162.748-2.523l19.746-6.583V15.004C511.996,8.939,508.349,3.461,502.738,1.147z"/>
	</g>
</g>
<g>
	<g>
		<path d="M501.742,270.224c-30.557,10.181-63.65,15.278-95.745,15.278c-21.467,0-42.893-2.488-63.899-7.046l76.325,76.328
			l86.681-85.681L501.742,270.224z"/>
	</g>
</g>
<g>
	<g>
		<path d="M241.776,501.743c-16.99-50.981-19.593-107.233-8.23-159.644l-76.33,77.325l85.681,85.681L241.776,501.743z"/>
	</g>
</g>
<g>
	<g>
		<path d="M507.602,486.391L318.503,297.294c-11.358,17.135-29.702,28.828-50.803,32.21
			c-15.527,52.614-14.826,110.659,2.523,162.748l6.583,19.746h220.191c6.064,0,11.543-3.647,13.857-9.258
			C513.183,497.129,511.894,490.683,507.602,486.391z"/>
	</g>
</g>
<g>
	<g>
		<path d="M255.999,211.001c-24.814,0-44.999,20.186-44.999,44.999S231.186,301,255.999,301c24.814,0,44.999-20.186,44.999-44.999
			S280.813,211.001,255.999,211.001z"/>
	</g>
</g>
<g>
</g>
<g>
</g>
<g>
</g>
<g>
</g>
<g>
</g>
<g>
</g>
<g>
</g>
<g>
</g>
<g>
</g>
<g>
</g>
<g>
</g>
<g>
</g>
<g>
</g>
<g>
</g>
<g>
</g>
</svg>
