<svg id="Layer_1" enable-background="new 0 0 512.002 512.002" height="512" viewBox="0 0 512.002 512.002" width="512" xmlns="http://www.w3.org/2000/svg"><path d="m427.001 203.002c-46.869 0-85-38.535-85-85.901 0-36.297 4.859-96.195 5.066-98.727.899-11.009 10.568-19.199 21.562-18.305 11.009.899 19.205 10.553 18.306 21.562-.049.604-4.934 60.812-4.934 95.47 0 25.31 20.187 45.901 45 45.901s45-20.591 45-45.901c0-34.682-4.884-94.866-4.934-95.47-.899-11.009 7.296-20.663 18.305-21.562 10.998-.904 20.663 7.295 21.563 18.305.207 2.532 5.066 62.43 5.066 98.727 0 47.366-38.131 85.901-85 85.901zm20-106v-77c0-11.046-8.954-20-20-20s-20 8.954-20 20v77c0 11.046 8.954 20 20 20s20-8.954 20-20zm-84.732 392.211c10.058-4.566 14.509-16.422 9.942-26.479-4.565-10.057-16.42-14.51-26.479-9.942-27.681 12.568-58.709 19.211-89.731 19.211-119.103 0-216-96.897-216-216s96.897-216 216-216c9.811 0 19.673.663 29.313 1.97 10.939 1.482 21.021-6.186 22.506-17.131s-6.186-21.022-17.131-22.506c-11.415-1.548-23.085-2.333-34.688-2.333-68.38 0-132.667 26.629-181.02 74.98-48.352 48.352-74.98 112.64-74.98 181.02s26.629 132.667 74.98 181.02c48.353 48.352 112.64 74.98 181.02 74.98 36.684-.001 73.432-7.881 106.268-22.79zm-101.993-74.257c11.043-.262 19.782-9.426 19.521-20.468-.261-11.043-9.397-19.77-20.469-19.521-.952.022-1.901.033-2.85.033-64.056 0-116.917-51.322-118.443-115.694-.751-31.644 10.868-61.687 32.715-84.594 21.848-22.907 51.31-35.936 82.959-36.687 9.595-.223 20.202.962 30.694 3.44 10.758 2.541 21.523-4.118 24.063-14.867 2.539-10.75-4.117-21.523-14.867-24.062-13.765-3.251-27.891-4.813-40.838-4.5-42.33 1.003-81.734 18.43-110.956 49.068-29.222 30.639-44.763 70.823-43.758 113.15 2.042 86.104 72.736 154.746 158.419 154.746 1.262.002 2.542-.014 3.81-.044zm186.725 77.046v-229c0-11.046-8.954-20-20-20s-20 8.954-20 20v229c0 11.046 8.954 20 20 20s20-8.954 20-20z"/></svg>