<?xml version="1.0" encoding="iso-8859-1"?>
<!-- Generator: Adobe Illustrator 19.0.0, SVG Export Plug-In . SVG Version: 6.00 Build 0)  -->
<svg version="1.1" id="Capa_1" xmlns="http://www.w3.org/2000/svg" xmlns:xlink="http://www.w3.org/1999/xlink" x="0px" y="0px"
	 viewBox="0 0 380.56 380.56" style="enable-background:new 0 0 380.56 380.56;" xml:space="preserve">
<g>
	<g>
		<path d="M214.96,69.96c2.011-3.855,3.081-8.132,3.12-12.48c0-15.464-12.536-28-28-28c-15.464,0-28,12.536-28,28
			c0.039,4.348,1.109,8.625,3.12,12.48c-66.88,3.36-128,20.48-128,50.32c-0.022,4.418,3.542,8.018,7.96,8.04
			c0.281,0.001,0.561-0.012,0.84-0.04h288.96c4.418,0,8-3.582,8-8C342.96,90.44,282.08,73.32,214.96,69.96z M190.48,45.56
			c6.539,0,11.84,5.301,11.84,11.84s-5.301,11.84-11.84,11.84s-11.84-5.301-11.84-11.84S183.941,45.56,190.48,45.56z M58.88,112.6
			c14.8-13.28,62.96-27.36,131.6-27.36v0.32c68.64,0,116.8,14.08,131.6,27.04H58.88z"/>
	</g>
</g>
<g>
	<g>
		<path d="M74,166.84c-4.418,0-8,3.582-8,8v86c0,4.418,3.582,8,8,8s8-3.582,8-8v-86C82,170.422,78.418,166.84,74,166.84z"/>
	</g>
</g>
<g>
	<g>
		<path d="M372.56,169h-29.6v-22.88c0-4.418-3.582-8-8-8H46c-4.418,0-8,3.582-8,8V169H8c-4.418,0-8,3.582-8,8s3.582,8,8,8h30.08
			v118.08c0,35.44,25.36,48,49.2,48h207.2c35.44,0,48-24.8,48-48V185h30.08c4.418,0,8-3.582,8-8S376.978,169,372.56,169z
			 M326.96,303.08c0,14.64-5.6,32-32,32h-208c-12.4,0-33.2-4.16-33.2-32V154.12h273.2V303.08z"/>
	</g>
</g>
<g>
</g>
<g>
</g>
<g>
</g>
<g>
</g>
<g>
</g>
<g>
</g>
<g>
</g>
<g>
</g>
<g>
</g>
<g>
</g>
<g>
</g>
<g>
</g>
<g>
</g>
<g>
</g>
<g>
</g>
</svg>
